<svg xmlns="http://www.w3.org/2000/svg" version="1.1" xmlns:xlink="http://www.w3.org/1999/xlink" xmlns:svgjs="http://svgjs.dev/svgjs" width="1000" height="623" viewBox="0 0 1000 623"><g transform="matrix(1,0,0,1,-0.6060606060606233,0.2522267206477409)"><svg viewBox="0 0 396 247" data-background-color="#ffffff" preserveAspectRatio="xMidYMid meet" height="623" width="1000" xmlns="http://www.w3.org/2000/svg" xmlns:xlink="http://www.w3.org/1999/xlink"><g id="tight-bounds" transform="matrix(1,0,0,1,0.2400000000000091,-0.09999999999999432)"><svg viewBox="0 0 395.52 247.2" height="247.2" width="395.52"><g><svg></svg></g><g><svg viewBox="0 0 395.52 247.2" height="247.2" width="395.52"><g transform="matrix(1,0,0,1,39.55199999999999,93.3718837459634)"><svg viewBox="0 0 316.416 60.45623250807319" height="60.45623250807319" width="316.416"><g><svg viewBox="0 0 316.416 60.45623250807319" height="60.45623250807319" width="316.416"><g><svg viewBox="0 0 316.416 60.45623250807319" height="60.45623250807319" width="316.416"><g><svg viewBox="0 0 316.416 60.45623250807319" height="60.45623250807319" width="316.416"><g><svg viewBox="0 0 316.416 60.45623250807319" height="60.45623250807319" width="316.416"><g><svg viewBox="0 0 316.416 60.45623250807319" height="60.45623250807319" width="316.416"><g transform="matrix(1,0,0,1,0,0)"><svg width="316.416" viewBox="1.0499999523162842 -34.900001525878906 185.7899932861328 35.5" height="60.45623250807319" data-palette-color="#00bfd8"><path d="M12.1 0L12.1-28.8 1.05-28.8 1.05-34.3 29.5-34.3 29.5-28.8 18.45-28.8 18.45 0 12.1 0ZM41 0.6Q34.5 0.6 31.27-2.75 28.05-6.1 28.05-13.15L28.05-13.15Q28.05-20.2 31.27-23.55 34.5-26.9 41-26.9L41-26.9Q47.5-26.9 50.72-23.55 53.95-20.2 53.95-13.15L53.95-13.15Q53.95-6.1 50.72-2.75 47.5 0.6 41 0.6L41 0.6ZM41-4.3Q44.55-4.3 46.15-6.38 47.75-8.45 47.75-12.8L47.75-12.8 47.75-13.5Q47.75-17.85 46.15-19.93 44.55-22 41-22L41-22Q37.4-22 35.82-19.93 34.25-17.85 34.25-13.5L34.25-13.5 34.25-12.8Q34.25-8.45 35.82-6.38 37.4-4.3 41-4.3L41-4.3ZM74.75 0.6Q66.59 0.6 62.3-3.78 58-8.15 58-17.15L58-17.15Q58-26.05 62.52-30.48 67.05-34.9 75.5-34.9L75.5-34.9Q80-34.9 83.62-33.52 87.25-32.15 89.37-29.4 91.5-26.65 91.5-22.6L91.5-22.6 84.9-22.6Q84.9-25.85 82.25-27.68 79.59-29.5 75.65-29.5L75.65-29.5Q70.05-29.5 67.3-26.55 64.55-23.6 64.55-17.65L64.55-17.65 64.55-16.65Q64.59-10.5 67.17-7.65 69.75-4.8 75.05-4.8L75.05-4.8Q79.75-4.8 82.42-6.95 85.09-9.1 85.09-13L85.09-13 85.09-13.05 74.09-13.05 74.09-18.35 91.5-18.35 91.5 0 86.95 0 86.4-3.8Q84.15-1.55 81.34-0.48 78.55 0.6 74.75 0.6L74.75 0.6ZM112.14 0L112.14-34.3 118.24-34.3 133.14-13.85Q133.74-12.95 134.19-12.18 134.64-11.4 134.84-11.1L134.84-11.1 135.09-11.2 134.99-13.9 134.99-34.3 141.14-34.3 141.14 0 135.14 0 120.14-20.65Q119.59-21.4 119.09-22.33 118.59-23.25 118.44-23.45L118.44-23.45 118.19-23.3Q118.19-23.05 118.24-22.3 118.29-21.55 118.29-20.55L118.29-20.55 118.29 0 112.14 0ZM159.14 0.6Q152.74 0.6 149.64-2.75 146.54-6.1 146.54-13.15L146.54-13.15Q146.54-20.2 149.66-23.55 152.79-26.9 159.14-26.9L159.14-26.9Q164.94-26.9 167.81-23.65 170.69-20.4 170.69-13.5L170.69-13.5 170.69-11.7 152.64-11.7Q152.79-7.8 154.31-5.98 155.84-4.15 159.19-4.15L159.19-4.15Q161.69-4.15 163.24-5.43 164.79-6.7 164.79-9.2L164.79-9.2 170.69-9.2Q170.69-4.35 167.49-1.88 164.29 0.6 159.14 0.6L159.14 0.6ZM152.74-15.95L164.44-15.95Q164.44-22.15 159.14-22.15L159.14-22.15Q156.14-22.15 154.61-20.63 153.09-19.1 152.74-15.95L152.74-15.95ZM182.64 0.6Q179.29 0.6 177.81-1.28 176.34-3.15 176.34-5.95L176.34-5.95 176.34-21.4 173.14-21.4 173.14-26.3 176.44-26.3 177.54-33.65 182.34-33.65 182.34-26.3 186.84-26.3 186.84-21.4 182.34-21.4 182.34-6.55Q182.34-4.3 184.49-4.3L184.49-4.3 186.84-4.3 186.84-0.2Q186.04 0.1 184.84 0.35 183.64 0.6 182.64 0.6L182.64 0.6Z" opacity="1" transform="matrix(1,0,0,1,0,0)" fill="#00bfd8" class="undefined-text-0" data-fill-palette-color="primary" id="text-0"></path></svg></g></svg></g></svg></g></svg></g></svg></g></svg></g></svg></g><g mask="url(#4ff51989-0c7f-48b8-b80d-868d681dc2ba)"><g transform="matrix(4.50668979827988, 0, 0, 4.50668979827988, 75.12774845099804, 1.0000000000000142)"><svg xmlns="http://www.w3.org/2000/svg" xmlns:xlink="http://www.w3.org/1999/xlink" version="1.1" x="0" y="0" viewBox="17.78953742980957 17.793001174926758 54.42231750488281 54.40800476074219" enable-background="new 0 0 90 90" xml:space="preserve" height="54.40800476074219" width="54.42231750488281" class="icon-none" data-fill-palette-color="accent" id="none"><path fill="#00bfd8" d="M72.135 43.08c-0.154-0.576-0.523-1.058-1.041-1.356-0.34-0.195-0.725-0.299-1.113-0.299-0.498 0-0.975 0.167-1.357 0.46l-3.855-2.226 2.18-3.776c0.096 0.012 0.191 0.019 0.287 0.019 0.795 0 1.537-0.428 1.936-1.117 0.297-0.516 0.377-1.117 0.223-1.693s-0.523-1.058-1.041-1.355c-0.338-0.195-0.725-0.3-1.115-0.3-0.795 0-1.535 0.428-1.934 1.116-0.463 0.803-0.369 1.776 0.16 2.472l-2.18 3.777-6.271-3.621 2.18-3.776c0.094 0.013 0.189 0.019 0.285 0.019 0.797 0 1.537-0.428 1.936-1.117 0.615-1.065 0.248-2.434-0.816-3.049-0.34-0.196-0.727-0.3-1.115-0.3-0.797 0-1.537 0.428-1.936 1.116-0.297 0.517-0.377 1.117-0.223 1.693 0.078 0.287 0.207 0.551 0.383 0.78l-2.18 3.775-6.631-3.828 2.182-3.776c0.094 0.013 0.189 0.019 0.285 0.019 0.797 0 1.537-0.428 1.934-1.116 0.299-0.517 0.379-1.118 0.225-1.694s-0.523-1.058-1.041-1.356c-0.338-0.196-0.723-0.299-1.113-0.299-0.797 0-1.537 0.428-1.936 1.117-0.463 0.803-0.369 1.776 0.16 2.471l-2.18 3.777-6.273-3.622 2.181-3.776c0.095 0.012 0.19 0.019 0.286 0.019 0.796 0 1.537-0.428 1.933-1.116 0.299-0.516 0.379-1.118 0.225-1.694s-0.523-1.058-1.041-1.356c-0.339-0.195-0.724-0.299-1.113-0.299-0.797 0-1.538 0.428-1.935 1.116-0.464 0.802-0.37 1.776 0.16 2.472l-2.181 3.777-3.776-2.18c0.111-0.867-0.294-1.757-1.097-2.22-0.339-0.196-0.725-0.299-1.115-0.299-0.795 0-1.536 0.427-1.934 1.116-0.298 0.516-0.376 1.118-0.222 1.693 0.154 0.576 0.523 1.058 1.039 1.355 0.34 0.195 0.726 0.299 1.116 0.299 0.497 0 0.972-0.167 1.355-0.459l3.776 2.18-3.62 6.271-3.777-2.181c0.111-0.867-0.294-1.757-1.097-2.221-0.339-0.195-0.724-0.298-1.113-0.298-0.796 0-1.538 0.427-1.935 1.115-0.298 0.517-0.378 1.119-0.224 1.695s0.524 1.057 1.041 1.354c0.339 0.196 0.725 0.299 1.115 0.299 0.497 0 0.972-0.166 1.355-0.459l3.776 2.18-3.828 6.63-3.777-2.181c0.111-0.867-0.294-1.757-1.096-2.221-0.339-0.196-0.725-0.299-1.114-0.299-0.796 0-1.537 0.428-1.936 1.117-0.298 0.516-0.377 1.117-0.223 1.693 0.154 0.577 0.524 1.059 1.04 1.355 0.339 0.195 0.725 0.3 1.115 0.3 0.497 0 0.972-0.167 1.356-0.46l3.777 2.181-3.621 6.271-3.777-2.181c0.111-0.866-0.294-1.756-1.097-2.22-0.339-0.196-0.724-0.3-1.115-0.3-0.795 0-1.537 0.428-1.934 1.117-0.615 1.065-0.249 2.433 0.817 3.049 0.339 0.195 0.724 0.299 1.115 0.299 0.497 0 0.973-0.166 1.356-0.46l3.777 2.181-2.219 3.844c-0.095-0.012-0.19-0.019-0.286-0.019-0.795 0-1.536 0.427-1.935 1.116-0.614 1.065-0.248 2.434 0.817 3.049 0.339 0.195 0.725 0.299 1.116 0.299 0.795 0 1.537-0.428 1.934-1.116 0.298-0.517 0.378-1.118 0.223-1.694-0.077-0.287-0.207-0.55-0.382-0.777l2.218-3.844 6.272 3.621-2.219 3.844c-0.095-0.012-0.191-0.019-0.287-0.019-0.796 0-1.537 0.428-1.934 1.116-0.615 1.065-0.249 2.434 0.817 3.049 0.339 0.195 0.724 0.3 1.115 0.3 0.796 0 1.537-0.429 1.935-1.117 0.298-0.516 0.377-1.117 0.223-1.692-0.077-0.287-0.207-0.551-0.383-0.779l2.219-3.843 6.629 3.828-2.219 3.843c-0.095-0.013-0.19-0.02-0.286-0.02-0.796 0-1.537 0.429-1.934 1.116-0.299 0.517-0.379 1.118-0.225 1.694s0.524 1.057 1.04 1.355c0.339 0.195 0.725 0.3 1.115 0.3 0.796 0 1.537-0.428 1.936-1.117 0.462-0.803 0.368-1.776-0.161-2.47l2.219-3.845 6.273 3.62-2.219 3.844c-0.096-0.012-0.191-0.019-0.287-0.019-0.795 0-1.537 0.428-1.935 1.116-0.615 1.066-0.248 2.434 0.818 3.05 0.338 0.195 0.724 0.299 1.113 0.299 0.797 0 1.539-0.429 1.936-1.116 0.297-0.517 0.377-1.119 0.223-1.695-0.076-0.286-0.207-0.549-0.383-0.778l2.219-3.842 3.854 2.225c-0.037 0.286-0.02 0.579 0.059 0.865 0.154 0.576 0.523 1.058 1.039 1.356 0.34 0.195 0.725 0.299 1.115 0.299 0.795 0 1.537-0.428 1.936-1.117 0.613-1.065 0.248-2.433-0.818-3.049-0.338-0.195-0.725-0.299-1.113-0.299-0.498 0-0.975 0.167-1.357 0.46l-3.855-2.226 3.621-6.272 3.855 2.226c-0.111 0.867 0.293 1.757 1.096 2.221 0.34 0.195 0.725 0.299 1.115 0.299 0.797 0 1.537-0.428 1.934-1.115 0.299-0.517 0.379-1.118 0.225-1.694s-0.523-1.058-1.041-1.356c-0.34-0.195-0.725-0.299-1.113-0.299-0.498 0-0.975 0.168-1.357 0.46l-3.855-2.226 3.828-6.63 3.854 2.225c-0.037 0.286-0.018 0.579 0.059 0.866 0.154 0.576 0.523 1.058 1.039 1.355 0.34 0.195 0.725 0.299 1.115 0.299 0.797 0 1.537-0.428 1.934-1.115 0.299-0.517 0.379-1.118 0.225-1.694s-0.523-1.058-1.041-1.356c-0.338-0.195-0.725-0.299-1.113-0.299-0.498 0-0.973 0.167-1.357 0.46l-3.855-2.226 3.621-6.271 3.855 2.226c-0.111 0.866 0.295 1.756 1.098 2.221 0.338 0.195 0.723 0.299 1.113 0.299 0.795 0 1.537-0.428 1.934-1.116C72.209 44.258 72.289 43.656 72.135 43.08zM66.787 33.411c0.092-0.16 0.266-0.259 0.449-0.259 0.092 0 0.178 0.023 0.26 0.07 0.119 0.068 0.203 0.18 0.24 0.313 0.035 0.134 0.016 0.273-0.053 0.393-0.139 0.24-0.465 0.33-0.707 0.189C66.73 33.975 66.645 33.658 66.787 33.411zM59.031 28.933c0.092-0.16 0.264-0.26 0.449-0.26 0.09 0 0.176 0.023 0.256 0.07 0.248 0.143 0.332 0.459 0.189 0.707-0.137 0.238-0.463 0.331-0.705 0.189-0.121-0.069-0.207-0.181-0.242-0.314C58.943 29.191 58.961 29.052 59.031 28.933zM50.916 24.247c0.092-0.16 0.264-0.26 0.449-0.26 0.09 0 0.176 0.023 0.256 0.07 0.121 0.069 0.207 0.181 0.242 0.314s0.018 0.272-0.053 0.392c-0.137 0.237-0.463 0.331-0.705 0.189C50.857 24.811 50.773 24.493 50.916 24.247zM43.159 19.768c0.092-0.16 0.264-0.259 0.449-0.259 0.09 0 0.177 0.023 0.256 0.069 0.12 0.069 0.206 0.181 0.242 0.314 0.035 0.133 0.017 0.272-0.053 0.393-0.138 0.238-0.465 0.33-0.706 0.189C43.1 20.332 43.016 20.015 43.159 19.768zM33.404 23.138c-0.119-0.068-0.204-0.18-0.24-0.312-0.036-0.134-0.018-0.274 0.051-0.393 0.094-0.162 0.262-0.259 0.449-0.259 0.091 0 0.177 0.023 0.258 0.07 0.247 0.143 0.332 0.459 0.189 0.707C33.974 23.188 33.649 23.279 33.404 23.138zM28.925 30.895c-0.119-0.068-0.205-0.18-0.24-0.312-0.036-0.134-0.018-0.273 0.052-0.393 0.092-0.16 0.265-0.258 0.45-0.258 0.09 0 0.177 0.022 0.256 0.068 0.247 0.143 0.332 0.461 0.19 0.707C29.494 30.947 29.172 31.038 28.925 30.895zM24.24 39.01c-0.12-0.068-0.205-0.18-0.241-0.313-0.036-0.133-0.018-0.273 0.052-0.393 0.092-0.159 0.265-0.259 0.45-0.259 0.09 0 0.177 0.023 0.256 0.069 0.247 0.143 0.332 0.46 0.19 0.707C24.81 39.06 24.486 39.153 24.24 39.01zM19.762 46.769c-0.247-0.143-0.332-0.46-0.189-0.706 0.092-0.16 0.264-0.26 0.449-0.26 0.091 0 0.177 0.023 0.257 0.07 0.247 0.143 0.332 0.459 0.189 0.706C20.331 46.817 20.004 46.909 19.762 46.769zM23.093 56.589c-0.139 0.241-0.461 0.331-0.706 0.189-0.247-0.143-0.332-0.46-0.19-0.706 0.093-0.159 0.265-0.259 0.45-0.259 0.09 0 0.177 0.023 0.258 0.07 0.119 0.069 0.205 0.18 0.24 0.312C23.181 56.33 23.163 56.469 23.093 56.589zM30.851 61.067c-0.138 0.238-0.464 0.33-0.706 0.189-0.247-0.143-0.332-0.459-0.189-0.706 0.092-0.16 0.264-0.259 0.448-0.259 0.091 0 0.177 0.023 0.258 0.07 0.12 0.069 0.205 0.181 0.241 0.313C30.938 60.809 30.92 60.948 30.851 61.067zM38.967 65.753c-0.137 0.238-0.463 0.331-0.707 0.189-0.12-0.068-0.206-0.181-0.241-0.314-0.036-0.133-0.018-0.271 0.052-0.392 0.092-0.16 0.264-0.26 0.449-0.26 0.091 0 0.177 0.023 0.257 0.07C39.024 65.189 39.109 65.507 38.967 65.753zM46.723 70.232c-0.137 0.237-0.465 0.329-0.705 0.189-0.248-0.143-0.332-0.46-0.189-0.706 0.092-0.16 0.264-0.26 0.449-0.26 0.09 0 0.178 0.023 0.258 0.07 0.119 0.068 0.205 0.18 0.24 0.312C46.811 69.973 46.793 70.111 46.723 70.232zM56.594 66.84c0.246 0.143 0.332 0.459 0.189 0.705-0.137 0.238-0.463 0.331-0.707 0.19-0.119-0.069-0.205-0.181-0.24-0.314s-0.018-0.272 0.053-0.393c0.092-0.159 0.264-0.259 0.449-0.259C56.428 66.77 56.514 66.793 56.594 66.84zM61.072 59.082c0.119 0.068 0.205 0.18 0.242 0.314 0.035 0.133 0.018 0.271-0.053 0.392-0.137 0.238-0.465 0.329-0.705 0.189-0.248-0.143-0.332-0.46-0.189-0.706 0.092-0.162 0.26-0.26 0.449-0.26C60.906 59.012 60.994 59.035 61.072 59.082zM65.758 50.966c0.119 0.069 0.205 0.181 0.242 0.314 0.035 0.134 0.016 0.272-0.053 0.394-0.137 0.237-0.463 0.33-0.707 0.188-0.119-0.068-0.205-0.18-0.24-0.312-0.035-0.135-0.018-0.274 0.051-0.393 0.094-0.16 0.266-0.26 0.451-0.26C65.592 50.896 65.68 50.92 65.758 50.966zM54.668 35.809l-3.621 6.271-6.63-3.828 3.621-6.271L54.668 35.809zM50.189 43.565l-3.828 6.63-6.63-3.828 3.828-6.63L50.189 43.565zM40.28 27.501l6.273 3.622-3.621 6.271-6.273-3.622L40.28 27.501zM35.801 35.258l6.273 3.622-3.828 6.63-6.272-3.621L35.801 35.258zM27.495 49.646l3.621-6.271 6.272 3.621-3.621 6.272L27.495 49.646zM35.253 54.125l3.621-6.272 6.63 3.828-3.621 6.272L35.253 54.125zM49.641 62.432l-6.273-3.621 3.623-6.272 6.271 3.621L49.641 62.432zM54.119 54.674l-6.271-3.621 3.826-6.63 6.273 3.621L54.119 54.674zM58.805 46.559l-6.273-3.621 3.623-6.271 6.271 3.621L58.805 46.559zM70.426 43.915c-0.139 0.241-0.463 0.331-0.705 0.19-0.248-0.143-0.332-0.46-0.189-0.707 0.092-0.159 0.264-0.259 0.449-0.259 0.09 0 0.176 0.023 0.256 0.069 0.119 0.069 0.205 0.182 0.242 0.314C70.514 43.657 70.494 43.796 70.426 43.915z" data-fill-palette-color="accent"></path></svg></g></g></svg></g><defs><mask id="04f1d938-7529-4374-bee3-df42686b722f"><rect width="640" height="400" fill="white"></rect><rect width="348.05760000000004" height="89.00076359922497" fill="black" x="145.97119999999998" y="155.49961820038752" id="transform-me" transform="matrix(1,0,0,1,-122.24000000000001,-76.4)"></rect></mask><mask id="71c85c03-1e8d-46d5-a010-0827f4bccc60"><rect width="640" height="400" fill="white"></rect><rect width="348.05760000000004" height="89.00076359922497" fill="black" x="145.97119999999998" y="155.49961820038752" id="transform-me" transform="matrix(1,0,0,1,-122.24000000000001,-76.4)"></rect></mask><mask id="c818c34d-5289-43a0-a6af-5fcc2af896c0"><rect width="640" height="400" fill="white"></rect><rect width="348.05760000000004" height="89.00076359922497" fill="black" x="145.97119999999998" y="155.49961820038752" id="transform-me" transform="matrix(1,0,0,1,-122.24000000000001,-76.4)"></rect></mask><mask id="4ff51989-0c7f-48b8-b80d-868d681dc2ba"><rect width="640" height="400" fill="white"></rect><rect width="348.05760000000004" height="89.00076359922497" fill="black" x="145.97119999999998" y="155.49961820038752" id="transform-me" transform="matrix(1,0,0,1,-122.24000000000001,-76.4)"></rect></mask></defs></svg><rect width="395.52" height="247.2" fill="none" stroke="none" visibility="hidden"></rect></g></svg></g></svg>